<svg width="153" height="40" viewBox="0 0 153 40" fill="none" xmlns="http://www.w3.org/2000/svg">
<path d="M85.4571 14.512C87.0891 14.512 88.4011 15.016 89.3931 16.024C90.4011 17.016 90.9051 18.408 90.9051 20.2V28H87.5451V20.656C87.5451 19.616 87.2811 18.824 86.7531 18.28C86.2251 17.72 85.5051 17.44 84.5931 17.44C83.6811 17.44 82.9531 17.72 82.4091 18.28C81.8811 18.824 81.6171 19.616 81.6171 20.656V28H78.2571V20.656C78.2571 19.616 77.9931 18.824 77.4651 18.28C76.9371 17.72 76.2171 17.44 75.3051 17.44C74.3771 17.44 73.6411 17.72 73.0971 18.28C72.5691 18.824 72.3051 19.616 72.3051 20.656V28H68.9451V14.704H72.3051V16.312C72.7371 15.752 73.2891 15.312 73.9611 14.992C74.6491 14.672 75.4011 14.512 76.2171 14.512C77.2571 14.512 78.1851 14.736 79.0011 15.184C79.8171 15.616 80.4491 16.24 80.8971 17.056C81.3291 16.288 81.9531 15.672 82.7691 15.208C83.6011 14.744 84.4971 14.512 85.4571 14.512Z" fill="white"/>
<path d="M99.9975 28.216C98.7175 28.216 97.5655 27.936 96.5415 27.376C95.5175 26.8 94.7095 25.992 94.1175 24.952C93.5415 23.912 93.2535 22.712 93.2535 21.352C93.2535 19.992 93.5495 18.792 94.1415 17.752C94.7495 16.712 95.5735 15.912 96.6135 15.352C97.6535 14.776 98.8135 14.488 100.094 14.488C101.374 14.488 102.534 14.776 103.574 15.352C104.614 15.912 105.43 16.712 106.022 17.752C106.63 18.792 106.934 19.992 106.934 21.352C106.934 22.712 106.622 23.912 105.998 24.952C105.39 25.992 104.558 26.8 103.502 27.376C102.462 27.936 101.294 28.216 99.9975 28.216ZM99.9975 25.288C100.606 25.288 101.174 25.144 101.702 24.856C102.246 24.552 102.678 24.104 102.998 23.512C103.318 22.92 103.478 22.2 103.478 21.352C103.478 20.088 103.142 19.12 102.47 18.448C101.814 17.76 101.006 17.416 100.046 17.416C99.0855 17.416 98.2775 17.76 97.6215 18.448C96.9815 19.12 96.6615 20.088 96.6615 21.352C96.6615 22.616 96.9735 23.592 97.5975 24.28C98.2375 24.952 99.0375 25.288 99.9975 25.288Z" fill="white"/>
<path d="M116.766 14.512C118.35 14.512 119.63 15.016 120.606 16.024C121.582 17.016 122.07 18.408 122.07 20.2V28H118.71V20.656C118.71 19.6 118.446 18.792 117.918 18.232C117.39 17.656 116.67 17.368 115.758 17.368C114.83 17.368 114.094 17.656 113.55 18.232C113.022 18.792 112.758 19.6 112.758 20.656V28H109.398V14.704H112.758V16.36C113.206 15.784 113.774 15.336 114.462 15.016C115.166 14.68 115.934 14.512 116.766 14.512Z" fill="white"/>
<path d="M137.625 21.064C137.625 21.544 137.593 21.976 137.529 22.36H127.809C127.889 23.32 128.225 24.072 128.817 24.616C129.409 25.16 130.137 25.432 131.001 25.432C132.249 25.432 133.137 24.896 133.665 23.824H137.289C136.905 25.104 136.169 26.16 135.081 26.992C133.993 27.808 132.657 28.216 131.073 28.216C129.793 28.216 128.641 27.936 127.617 27.376C126.609 26.8 125.817 25.992 125.241 24.952C124.681 23.912 124.401 22.712 124.401 21.352C124.401 19.976 124.681 18.768 125.241 17.728C125.801 16.688 126.585 15.888 127.593 15.328C128.601 14.768 129.761 14.488 131.073 14.488C132.337 14.488 133.465 14.76 134.457 15.304C135.465 15.848 136.241 16.624 136.785 17.632C137.345 18.624 137.625 19.768 137.625 21.064ZM134.145 20.104C134.129 19.24 133.817 18.552 133.209 18.04C132.601 17.512 131.857 17.248 130.977 17.248C130.145 17.248 129.441 17.504 128.865 18.016C128.305 18.512 127.961 19.208 127.833 20.104H134.145Z" fill="white"/>
<path d="M152.798 14.704L144.566 34.288H140.99L143.87 27.664L138.542 14.704H142.31L145.742 23.992L149.222 14.704H152.798Z" fill="white"/>
<path d="M34.1422 5.85781C30.3647 2.08031 25.3422 0 20 0C14.6578 0 9.63531 2.08031 5.85781 5.85781C2.08031 9.63531 0 14.6578 0 20C0 25.3422 2.08039 30.3646 5.85781 34.1422C9.63523 37.9198 14.6578 40 20 40C25.3422 40 30.3647 37.9197 34.1422 34.1422C37.9197 30.3647 40 25.3422 40 20C40 14.6578 37.9196 9.63539 34.1422 5.85781Z" fill="#33CC95"/>
<g clip-path="url(#clip0_35212_417)">
<path d="M20.5714 8V33.1429" stroke="white" stroke-width="2" stroke-linecap="round" stroke-linejoin="round"/>
<path d="M26.2857 12.5714H17.7143C16.6534 12.5714 15.636 12.9929 14.8859 13.743C14.1357 14.4931 13.7143 15.5106 13.7143 16.5714C13.7143 17.6323 14.1357 18.6497 14.8859 19.3999C15.636 20.15 16.6534 20.5714 17.7143 20.5714H23.4286C24.4894 20.5714 25.5069 20.9929 26.257 21.743C27.0072 22.4932 27.4286 23.5106 27.4286 24.5714C27.4286 25.6323 27.0072 26.6497 26.257 27.3999C25.5069 28.15 24.4894 28.5714 23.4286 28.5714H13.7143" stroke="white" stroke-width="2" stroke-linecap="round" stroke-linejoin="round"/>
</g>
<defs>
<clipPath id="clip0_35212_417">
<rect width="27.4286" height="27.4286" fill="white" transform="translate(6.85715 6.85714)"/>
</clipPath>
</defs>
</svg>
